<?xml version="1.0" standalone="no"?>
<!DOCTYPE svg PUBLIC "-//W3C//DTD SVG 20010904//EN"
 "http://www.w3.org/TR/2001/REC-SVG-20010904/DTD/svg10.dtd">
<svg version="1.0" xmlns="http://www.w3.org/2000/svg"
 width="204.000000pt" height="113.000000pt" viewBox="0 0 204.000000 113.000000"
 preserveAspectRatio="xMidYMid meet">
<metadata>
Created by potrace 1.16, written by Peter Selinger 2001-2019
</metadata>
<g transform="translate(0.000000,113.000000) scale(0.100000,-0.100000)"
fill="#000000" stroke="none">
<path d="M226 1095 c-74 -30 -147 -100 -184 -175 -22 -46 -26 -69 -26 -140 -1
-103 28 -174 96 -242 89 -90 163 -107 446 -108 l182 0 0 -205 0 -205 60 0 60
0 0 205 0 205 580 0 580 0 0 50 0 49 -857 3 c-847 3 -859 3 -903 24 -94 44
-144 122 -144 224 0 94 38 159 129 216 27 17 59 19 404 24 348 5 376 6 379 23
2 11 -3 17 -15 17 -17 1 -17 1 0 11 9 5 17 19 17 29 0 19 -10 20 -372 20 -372
0 -373 -1 -432 -25z"/>
<path d="M287 970 c-120 -36 -177 -185 -113 -294 73 -126 250 -133 336 -15
111 153 -41 363 -223 309z m128 -39 c48 -22 69 -44 91 -96 35 -86 -14 -192
-103 -219 -23 -7 -23 -6 -23 78 l0 86 30 0 c17 0 30 2 30 5 0 14 -94 144 -101
140 -9 -6 -79 -119 -79 -129 0 -3 11 -6 25 -6 25 0 25 -1 25 -90 0 -49 -3 -90
-6 -90 -23 0 -85 49 -103 80 -37 66 -23 168 29 215 23 21 86 44 120 44 14 0
43 -8 65 -18z"/>
<path d="M711 954 c-121 -60 -149 -207 -60 -308 31 -35 53 -50 95 -62 49 -14
59 -14 108 0 176 51 197 289 33 371 -65 32 -110 32 -176 -1z m141 -14 c46 -13
105 -77 114 -125 14 -77 -11 -138 -76 -182 -55 -38 -60 -33 -60 62 l0 85 35 0
35 0 -52 79 -52 78 -43 -69 c-24 -39 -43 -72 -43 -74 0 -2 14 -4 30 -4 l30 0
0 -90 c0 -101 -4 -105 -60 -67 -50 33 -72 70 -78 126 -12 126 96 215 220 181z"/>
<path d="M1040 741 l0 -171 40 0 40 0 0 70 0 70 30 0 c20 0 40 9 57 26 23 23
25 32 21 80 -6 76 -21 88 -113 92 l-75 4 0 -171z"/>
<path d="M1260 740 l0 -170 75 0 75 0 0 30 c0 28 -3 30 -35 30 -35 0 -35 0
-35 45 0 43 1 45 30 45 25 0 30 4 30 25 0 21 -5 25 -30 25 -28 0 -30 2 -30 40
0 38 2 40 30 40 27 0 30 3 30 30 l0 30 -70 0 -70 0 0 -170z"/>
<path d="M1440 741 l0 -171 40 0 40 0 0 81 c0 71 2 80 18 77 14 -3 17 -16 20
-81 l3 -77 34 0 35 0 0 74 c0 65 -3 77 -21 90 l-21 14 21 11 c17 9 21 21 21
59 0 75 -14 86 -109 90 l-81 4 0 -171z"/>
<path d="M1627 368 c-9 -7 -21 -26 -27 -41 -19 -53 8 -106 77 -148 28 -18 33
-26 33 -61 0 -32 -3 -39 -17 -36 -12 2 -19 14 -21 36 -3 29 -6 32 -38 32 -31
0 -34 -2 -34 -31 0 -44 15 -66 56 -79 45 -15 108 0 124 30 15 28 12 93 -5 118
-9 12 -36 35 -60 52 -36 25 -45 37 -45 60 0 23 5 30 20 30 15 0 20 -7 20 -25
0 -22 4 -25 35 -25 32 0 35 3 35 28 0 33 -8 45 -37 61 -29 15 -95 14 -116 -1z"/>
<path d="M1855 355 c-24 -23 -25 -30 -25 -145 0 -67 4 -130 10 -140 16 -30 75
-45 122 -31 42 13 68 53 68 106 0 22 -4 25 -39 25 -40 0 -40 0 -43 -42 -2 -31
-8 -44 -20 -46 -16 -3 -18 8 -18 123 0 115 2 126 18 123 13 -2 18 -15 20 -51
l3 -47 41 0 41 0 -5 52 c-7 68 -39 98 -104 98 -34 0 -51 -6 -69 -25z"/>
<path d="M910 205 l0 -165 40 0 39 0 3 80 c3 67 5 78 18 70 10 -6 16 -32 18
-79 l4 -71 34 0 34 0 0 69 c0 63 -3 72 -25 89 -25 20 -25 21 -5 27 24 8 34 43
26 90 -9 45 -29 55 -115 55 l-71 0 0 -165z"/>
<path d="M1169 368 c0 -2 -11 -76 -23 -166 l-22 -162 43 0 c41 0 43 1 43 30 0
42 36 42 45 0 6 -27 10 -30 46 -30 36 0 39 2 35 23 -3 12 -10 58 -16 102 -6
44 -16 108 -22 143 l-10 62 -59 0 c-32 0 -59 -1 -60 -2z"/>
<path d="M1370 206 l0 -166 30 0 30 0 0 76 c0 41 4 73 9 70 5 -3 17 -37 27
-76 l18 -70 38 0 38 0 0 165 0 165 -35 0 -34 0 -3 -77 -3 -78 -26 75 c-24 71
-27 75 -57 78 l-32 3 0 -165z"/>
</g>
</svg>
